<svg xmlns="http://www.w3.org/2000/svg" viewBox="0 0 273 319.14"><defs><style>.cls-1{fill:#020b1c;}.cls-2{font-size:30px;font-family:HiraMaruProN-W4-83pv-RKSJ-H, Hiragino Maru Gothic ProN;}.cls-3{fill:#fff;fill-rule:evenodd;}</style></defs><g id="レイヤー_2" data-name="レイヤー 2"><g id="レイヤー_1-2" data-name="レイヤー 1"><g id="Photoshop"><rect id="_22" data-name=" 22" class="cls-1" x="10.69" width="251.18" height="245" rx="44.08"/></g><text class="cls-2" transform="translate(31.5 298.82)">証明書発行待ち</text><path class="cls-3" d="M197.81,71.85H77.69c-18.23,0-21,10.51-21,19.46v56.38c0,13.51,7.35,23.2,19.61,24.39v20.59l22.83-20.31h98.69c12.29,0,20.67-9.32,20.67-24.67V91.31C218.48,77.74,211.38,71.85,197.81,71.85Zm10.86,75.84c0,14.71-8.43,14.87-10.86,14.87H95.49l-9.39,8.79v-8.79H77.69c-9,0-11.2-8.09-11.2-14.87V91.31c0-6.21,1-9.65,11.2-9.65H197.81c8.16,0,10.86,1.49,10.86,9.65Z"/><path class="cls-3" d="M170.12,112.46a9.73,9.73,0,0,0-9.39,9.73,9.61,9.61,0,0,0,9.7,9.36,9.55,9.55,0,0,0-.31-19.09Z"/><path class="cls-3" d="M100.47,112.49a9.53,9.53,0,0,0-.3,19.06,9.53,9.53,0,0,0,.3-19.06Z"/><path class="cls-3" d="M135,112.51a9.52,9.52,0,1,0,9.48,9.5A9.35,9.35,0,0,0,135,112.51Z"/></g></g></svg>