<svg xmlns="http://www.w3.org/2000/svg" viewBox="0 0 527.92 98.12" width="176px" height="33px"><defs><style>.cls-1{fill:#727171;}.cls-2{fill:#92bf24;}</style></defs><g id="レイヤー_2" data-name="レイヤー 2"><g id="レイヤー_1-2" data-name="レイヤー 1"><path class="cls-1" d="M164.14,76H150.62L136.77,55.39a21.36,21.36,0,0,1-1.26-2.62h-.16V76H124.64V28.52h10.71V51h.16c.27-.61.71-1.5,1.33-2.65L150,28.52h12.76L146.15,51.18Z"/><path class="cls-1" d="M187.08,76.86q-10.22,0-16.64-6.64T164,52.91q0-11.26,6.52-18.23t17.3-7q10.17,0,16.45,6.66t6.28,17.56q0,11.2-6.51,18.06T187.08,76.86Zm.46-39.93a10.78,10.78,0,0,0-8.95,4.23q-3.3,4.23-3.31,11.18t3.31,11.17a11.44,11.44,0,0,0,17.47.11q3.24-4,3.24-11.08,0-7.38-3.14-11.5A10.27,10.27,0,0,0,187.54,36.93Z"/><path class="cls-1" d="M257.73,72.85q-7,4-17.3,4-11.46,0-18.07-6.34T215.75,53q0-11.2,7.22-18.26t19.22-7.06a39.13,39.13,0,0,1,13.32,2.09v10a26.48,26.48,0,0,0-13.45-3.18A14.48,14.48,0,0,0,231.2,41Q227,45.33,227,52.54t3.76,11.33q3.76,4,10.16,4a14.17,14.17,0,0,0,6.1-1.09V57.51h-9.51V49h20.21Z"/><path class="cls-1" d="M295.74,76h-28.5V28.52h27.41v8.71H278V47.8h15.54v8.68H278V67.35h17.79Z"/><path class="cls-1" d="M346.38,76h-10.8L316,46.18a43.29,43.29,0,0,1-2.38-3.94h-.14q.27,2.52.27,7.68V76H303.63V28.52h11.53L334,57.44c.86,1.31,1.66,2.6,2.38,3.88h.14a49.85,49.85,0,0,1-.27-6.53V28.52h10.11Z"/><path class="cls-1" d="M387.21,59.67V76h-10.7V28.52h16.77q18,0,18,15.14a14.52,14.52,0,0,1-5.16,11.58q-5.15,4.42-13.76,4.43Zm0-22.93V51.55h4.21q8.55,0,8.55-7.49,0-7.32-8.55-7.32Z"/><path class="cls-1" d="M456.24,76H444.58L441.2,65.46H424.3L421,76h-11.6l17.3-47.51h12.69ZM438.75,57.25l-5.11-16a21,21,0,0,1-.79-4.28h-.27a17.68,17.68,0,0,1-.83,4.14l-5.16,16.11Z"/><path class="cls-1" d="M460.52,74.21V63.61a19,19,0,0,0,12.56,4.84,8.41,8.41,0,0,0,5.1-1.35A4.14,4.14,0,0,0,480,63.61a5.08,5.08,0,0,0-1.53-3.5q-1.53-1.63-7.29-4.35-10.86-5.15-10.87-13.92A12.62,12.62,0,0,1,465,31.58q4.72-3.85,12.61-3.86a31.24,31.24,0,0,1,11.53,1.83v9.9a18.67,18.67,0,0,0-10.93-3.31,8,8,0,0,0-4.87,1.32,4.13,4.13,0,0,0-1.79,3.48A5.08,5.08,0,0,0,473,44.56,22,22,0,0,0,479,48.2q7,3.34,9.67,6.66a12.13,12.13,0,0,1,2.65,7.82,12.61,12.61,0,0,1-4.72,10.37q-4.73,3.81-13.74,3.81A25.61,25.61,0,0,1,460.52,74.21Z"/><path class="cls-1" d="M497.18,74.21V63.61a19,19,0,0,0,12.55,4.84,8.46,8.46,0,0,0,5.11-1.35,4.15,4.15,0,0,0,1.82-3.49,5.08,5.08,0,0,0-1.53-3.5q-1.51-1.63-7.29-4.35Q497,50.61,497,41.84a12.6,12.6,0,0,1,4.72-10.26q4.73-3.85,12.61-3.86a31.27,31.27,0,0,1,11.53,1.83v9.9a18.7,18.7,0,0,0-10.94-3.31A8.06,8.06,0,0,0,510,37.46a4.16,4.16,0,0,0-1.79,3.48,5.08,5.08,0,0,0,1.41,3.62,22,22,0,0,0,6,3.64q7,3.34,9.67,6.66a12.13,12.13,0,0,1,2.65,7.82,12.61,12.61,0,0,1-4.72,10.37q-4.71,3.81-13.73,3.81A25.56,25.56,0,0,1,497.18,74.21Z"/><path class="cls-2" d="M49.06,0A49.06,49.06,0,1,0,98.12,49.06,49.12,49.12,0,0,0,49.06,0ZM73.29,65.48A4.56,4.56,0,0,0,70,62.11,4.67,4.67,0,0,0,68.85,62a4.54,4.54,0,0,0-3.42,1.54,19.65,19.65,0,0,1-1.82,1.83,4.57,4.57,0,0,0,2,7.84A3.63,3.63,0,0,1,68,74.92a3.64,3.64,0,0,1-1.36,5,3.64,3.64,0,0,1-4.95-1.36,4.27,4.27,0,0,1-.24-.55,4.57,4.57,0,0,0-4.28-3,4.69,4.69,0,0,0-1.17.15,4.56,4.56,0,0,0-3.33,5.16,3.77,3.77,0,0,1,.06.6,3.63,3.63,0,0,1-7.26,0c0-.1,0-.19,0-.29a4.55,4.55,0,0,0-3.39-4.77,4.55,4.55,0,0,0-5.29,2.5,2.1,2.1,0,0,1-.13.26,3.63,3.63,0,0,1-3.17,1.86A3.58,3.58,0,0,1,31.7,80,3.63,3.63,0,0,1,30.32,75a3.58,3.58,0,0,1,2.32-1.74,4.56,4.56,0,0,0,2-7.86,21,21,0,0,1-1.83-1.82,4.57,4.57,0,0,0-3.4-1.52,4.33,4.33,0,0,0-1.13.15,4.54,4.54,0,0,0-3.31,3.38A3.6,3.6,0,0,1,23.2,68a3.64,3.64,0,0,1-4.95-1.36,3.65,3.65,0,0,1,1.36-4.95,4.27,4.27,0,0,1,.55-.24,4.56,4.56,0,0,0-1.57-8.84,4.74,4.74,0,0,0-.75.06,3.63,3.63,0,1,1-.6-7.2l.29,0,.36,0a4.56,4.56,0,0,0,1.91-8.7l-.26-.13a3.63,3.63,0,0,1,1.78-6.79,3.62,3.62,0,0,1,3.51,2.79A4.56,4.56,0,0,0,28.16,36a4.69,4.69,0,0,0,1.11.14,4.55,4.55,0,0,0,3.42-1.55,21,21,0,0,1,1.82-1.83,4.57,4.57,0,0,0-2-7.84,3.58,3.58,0,0,1-2.33-1.73,3.63,3.63,0,0,1,6.3-3.59,4.27,4.27,0,0,1,.24.55,4.57,4.57,0,0,0,4.28,3A4.69,4.69,0,0,0,42.16,23a4.56,4.56,0,0,0,3.33-5.16,3.77,3.77,0,0,1-.06-.6,3.63,3.63,0,1,1,7.26,0,2.83,2.83,0,0,1,0,.29,4.56,4.56,0,0,0,8.68,2.27,2.1,2.1,0,0,1,.13-.26,3.64,3.64,0,0,1,3.17-1.85,3.57,3.57,0,0,1,1.77.46,3.62,3.62,0,0,1,1.71,2.18,3.61,3.61,0,0,1-2.65,4.5,4.56,4.56,0,0,0-2,7.86,19.65,19.65,0,0,1,1.83,1.82A4.57,4.57,0,0,0,68.75,36a4.33,4.33,0,0,0,1.13-.15,4.54,4.54,0,0,0,3.31-3.38,3.62,3.62,0,0,1,6.68-1,3.64,3.64,0,0,1-1.36,4.95,4.27,4.27,0,0,1-.55.24,4.56,4.56,0,0,0,1.57,8.85,3.81,3.81,0,0,0,.75-.07,3.77,3.77,0,0,1,.6-.06,3.63,3.63,0,1,1,0,7.26l-.29,0-.36,0a4.57,4.57,0,0,0-1.91,8.71,2.06,2.06,0,0,1,.26.12,3.63,3.63,0,0,1-1.78,6.79,3.62,3.62,0,0,1-3.51-2.79Z"/></g></g></svg>