<svg xmlns="http://www.w3.org/2000/svg" viewBox="0 0 273 319.14"><defs><style>.cls-1{fill:#020b1c;}.cls-2{font-size:30px;font-family:HiraMaruProN-W4-83pv-RKSJ-H, Hiragino Maru Gothic ProN;}.cls-3{fill:#fff;}</style></defs><g id="レイヤー_2" data-name="レイヤー 2"><g id="レイヤー_1-2" data-name="レイヤー 1"><g id="Photoshop"><rect id="_22" data-name=" 22" class="cls-1" x="10.69" width="251.18" height="245" rx="44.08"/></g><text class="cls-2" transform="translate(61.5 298.82)">機関リスト</text><path class="cls-3" d="M215.87,83.39H172a2.14,2.14,0,0,0-2.13,2.14v89.9h-4.64V68.71a.94.94,0,0,0-.94-.94H110.68a.94.94,0,0,0-.94.94V175.43H105.1V85.05a1.67,1.67,0,0,0-1.66-1.66H58.66A1.67,1.67,0,0,0,57,85.05v94.14a1.66,1.66,0,0,0,1.66,1.65H215.87a2.14,2.14,0,0,0,2.13-2.13V85.53A2.14,2.14,0,0,0,215.87,83.39Zm-143.61,81H66.4v-5.86h5.86Zm0-11.72H66.4v-5.86h5.86Zm0-11.71H66.4v-5.86h5.86Zm0-11.72H66.4v-5.86h5.86Zm0-11.72H66.4v-5.85h5.86Zm0-11.71H66.4V99.9h5.86ZM84,164.34H78.12v-5.86H84Zm0-11.72H78.12v-5.86H84Zm0-11.71H78.12v-5.86H84Zm0-11.72H78.12v-5.86H84Zm0-11.72H78.12v-5.85H84Zm0-11.71H78.12V99.9H84Zm11.71,58.58H89.84v-5.86h5.85Zm0-11.72H89.84v-5.86h5.85Zm0-11.71H89.84v-5.86h5.85Zm0-11.72H89.84v-5.86h5.85Zm0-11.72H89.84v-5.85h5.85Zm0-11.71H89.84V99.9h5.85Zm52.6,69.67H126.71V142.59h21.58ZM153.78,106a15.41,15.41,0,0,1-6.73,6.73c-17.39,8.83-34.66-8.44-25.83-25.83A15.41,15.41,0,0,1,128,80.17C145.34,71.34,162.61,88.61,153.78,106Zm31.39,58.34h-5.86v-5.86h5.86Zm0-11.72h-5.86v-5.86h5.86Zm0-11.71h-5.86v-5.86h5.86Zm0-11.72h-5.86v-5.86h5.86Zm0-11.72h-5.86v-5.85h5.86Zm0-11.71h-5.86V99.9h5.86Zm11.71,58.58H191v-5.86h5.86Zm0-11.72H191v-5.86h5.86Zm0-11.71H191v-5.86h5.86Zm0-11.72H191v-5.86h5.86Zm0-11.72H191v-5.85h5.86Zm0-11.71H191V99.9h5.86Zm11.72,58.58h-5.86v-5.86h5.86Zm0-11.72h-5.86v-5.86h5.86Zm0-11.71h-5.86v-5.86h5.86Zm0-11.72h-5.86v-5.86h5.86Zm0-11.72h-5.86v-5.85h5.86Zm0-11.71h-5.86V99.9h5.86Z"/><path class="cls-3" d="M143,90.08v-8a.29.29,0,0,0-.29-.29H132.27a.29.29,0,0,0-.29.29v8a.29.29,0,0,1-.29.29h-8a.29.29,0,0,0-.29.29v10.47a.29.29,0,0,0,.29.28h8a.29.29,0,0,1,.29.29v8a.28.28,0,0,0,.29.28h10.46a.28.28,0,0,0,.29-.28v-8a.29.29,0,0,1,.29-.29h8a.29.29,0,0,0,.29-.28V90.66a.29.29,0,0,0-.29-.29h-8A.29.29,0,0,1,143,90.08Z"/></g></g></svg>