<svg xmlns="http://www.w3.org/2000/svg" viewBox="0 0 273 319.14"><defs><style>.cls-1{fill:#020b1c;}.cls-2{font-size:30px;font-family:HiraMaruProN-W4-83pv-RKSJ-H, Hiragino Maru Gothic ProN;}.cls-3{fill:#fff;}</style></defs><g id="レイヤー_2" data-name="レイヤー 2"><g id="レイヤー_1-2" data-name="レイヤー 1"><g id="Photoshop"><rect id="_22" data-name=" 22" class="cls-1" x="10.69" width="251.18" height="245" rx="44.08"/></g><text class="cls-2" transform="translate(16.5 298.82)">証明書を読み取り</text><polygon class="cls-3" points="160.65 48.85 160.65 67.6 193.46 67.6 193.46 98.06 209.86 98.06 209.86 48.85 160.65 48.85"/><polygon class="cls-3" points="80.97 67.6 113.78 67.6 113.78 48.85 62.22 48.85 62.22 98.06 80.97 98.06 80.97 67.6"/><polygon class="cls-3" points="193.46 180.09 160.65 180.09 160.65 196.49 209.86 196.49 209.86 144.94 193.46 144.94 193.46 180.09"/><polygon class="cls-3" points="80.97 144.94 62.22 144.94 62.22 196.49 113.78 196.49 113.78 180.09 80.97 180.09 80.97 144.94"/><polygon class="cls-3" points="170.02 133.22 170.02 114.47 146.59 114.47 146.59 91.03 127.84 91.03 127.84 114.47 104.4 114.47 104.4 133.22 127.84 133.22 127.84 156.65 146.59 156.65 146.59 133.22 170.02 133.22"/></g></g></svg>