<svg xmlns="http://www.w3.org/2000/svg" viewBox="0 0 273 319.14"><defs><style>.cls-1{fill:#020b1c;}.cls-2{font-size:30px;font-family:HiraMaruProN-W4-83pv-RKSJ-H, Hiragino Maru Gothic ProN;}.cls-3{fill:#fff;}</style></defs><g id="レイヤー_2" data-name="レイヤー 2"><g id="レイヤー_1-2" data-name="レイヤー 1"><g id="Photoshop"><rect id="_22" data-name=" 22" class="cls-1" x="10.69" width="251.18" height="245" rx="44.08"/></g><text class="cls-2" transform="translate(31.5 298.82)">連続で読み取る</text><polygon class="cls-3" points="160.65 48.85 160.65 67.6 193.46 67.6 193.46 98.06 209.86 98.06 209.86 48.85 160.65 48.85"/><polygon class="cls-3" points="80.97 67.6 113.78 67.6 113.78 48.85 62.22 48.85 62.22 98.06 80.97 98.06 80.97 67.6"/><polygon class="cls-3" points="193.46 180.09 160.65 180.09 160.65 196.49 209.86 196.49 209.86 144.94 193.46 144.94 193.46 180.09"/><polygon class="cls-3" points="80.97 144.94 62.22 144.94 62.22 196.49 113.78 196.49 113.78 180.09 80.97 180.09 80.97 144.94"/><polygon class="cls-3" points="170.02 133.22 170.02 114.47 146.59 114.47 146.59 91.03 127.84 91.03 127.84 114.47 104.4 114.47 104.4 133.22 127.84 133.22 127.84 156.65 146.59 156.65 146.59 133.22 170.02 133.22"/><path class="cls-3" d="M103.8,231.63a24.36,24.36,0,0,0-.72-3.24l-.81-2.55H93.72l-.81,2.55a17.29,17.29,0,0,0-.75,3.24h-7A29.55,29.55,0,0,0,86.58,228l6.48-18.06a18.31,18.31,0,0,0,1-3.24h7.83a23.94,23.94,0,0,0,1,3.24L109.38,228c.57,1.59,1.05,2.82,1.44,3.66ZM98,211.8l-2.79,9h5.64Z"/><path class="cls-3" d="M135.84,206.67a29.81,29.81,0,0,0-.24,4.53v10.32c0,6.84-4.11,10.71-11.34,10.71-3.72,0-6.75-1-8.55-2.94s-2.64-4.47-2.64-7.83V211.2a29.31,29.31,0,0,0-.24-4.53h6.48a27.86,27.86,0,0,0-.24,4.53v10.32c0,3.78,1.71,5.58,5.22,5.58s5.31-1.8,5.31-5.58V211.2a29.56,29.56,0,0,0-.24-4.53Z"/><path class="cls-3" d="M152.31,227.1a34.14,34.14,0,0,0,.24,4.53h-6.63a33.27,33.27,0,0,0,.24-4.53V212h-3.54a40.6,40.6,0,0,0-4.53.21v-5.73a41.12,41.12,0,0,0,4.47.21H155.7a39.68,39.68,0,0,0,4.68-.21v5.73a38.68,38.68,0,0,0-4.68-.21h-3.39Z"/><path class="cls-3" d="M186.15,219c0,7.92-4.83,13.17-12.12,13.17s-12.09-5.13-12.09-13.08,4.74-13,12.12-13S186.15,211.17,186.15,219Zm-6.24.06c0-4.86-2.22-7.8-5.85-7.8s-5.91,3-5.91,7.8,2.25,7.92,5.91,7.92S179.91,224,179.91,219.09Z"/></g></g></svg>