<svg xmlns="http://www.w3.org/2000/svg" viewBox="0 0 273 319.14"><defs><style>.cls-1{fill:#020b1c;}.cls-2{font-size:30px;font-family:HiraMaruProN-W4-83pv-RKSJ-H, Hiragino Maru Gothic ProN;}.cls-3{fill:#fff;fill-rule:evenodd;}</style></defs><g id="レイヤー_2" data-name="レイヤー 2"><g id="レイヤー_1-2" data-name="レイヤー 1"><g id="Photoshop"><rect id="_22" data-name=" 22" class="cls-1" x="10.69" width="251.18" height="245" rx="44.08"/></g><text class="cls-2" transform="translate(76.5 298.82)">機関登録</text><path class="cls-3" d="M213.93,101.39A4.38,4.38,0,0,0,210.28,97c-.33-.08-.68-.09-1-.15l-8.88-1.56c-1.1-2.88-2.2-5.73-3.31-8.64.49-.68.93-1.34,1.43-2,1.28-1.62,2.52-3.27,3.89-4.8,2.67-3,2.56-5.51-.09-8.12-.74-.72-1.37-1.54-2.06-2.3-2.9-3.21-4.33-3.43-8-1.17-2.43,1.5-4.84,3-7.41,4.65a44.88,44.88,0,0,0-12.78-5.89c-.23-1.23-.47-2.34-.66-3.46-.37-2.14-.71-4.29-1.09-6.43a4.41,4.41,0,0,0-4.17-3.92,34.53,34.53,0,0,0-6.51,0,4.34,4.34,0,0,0-4.17,3.89c-.2,1.25-.34,2.51-.66,3.72-.55,2.08-.33,4.33-1.22,6l-10.85,4.54c-.65-.44-1.42-.92-2.17-1.45-1.87-1.31-3.69-2.71-5.61-4-2.34-1.54-4.19-1.39-6.22.46-1.35,1.24-2.65,2.54-3.88,3.89-1.9,2.08-2,3.8-.45,6.2,1.19,1.82,2.53,3.53,3.75,5.33.63.93,1.58,1.7,1.63,2.58-1.58,3.78-3,7.25-4.5,10.79l-1.66.33c-2.71.46-5.42.86-8.12,1.4a4.3,4.3,0,0,0-3.83,4.21,61.65,61.65,0,0,0,0,6.52,4.19,4.19,0,0,0,3.26,4c.75.23,1.57.26,2.35.44,2.76.66,5.67.63,8.19,1.66l3.36,8.89c-1,1.19-1.86,2.36-2.79,3.51-1.14,1.43-2.35,2.82-3.42,4.3a4.44,4.44,0,0,0,0,5.71,54.66,54.66,0,0,0,4.11,4.62,4.23,4.23,0,0,0,5.62.78c.91-.48,1.77-1.06,2.64-1.6l6-3.75c2.2,1.14,4.19,2.27,6.26,3.2s4.24,1.62,6.35,2.41c.19.94.36,1.72.5,2.5.44,2.48.79,5,1.32,7.44s1.84,3.56,4.27,3.66c2.17.1,4.35.07,6.52,0a3.93,3.93,0,0,0,3.77-3c.31-1,.4-2,.63-3,.59-2.54.57-5.22,1.42-7.51l10.78-4.44c1,.66,2,1.35,3,2.07,1.68,1.19,3.32,2.44,5,3.57,2.42,1.58,4.11,1.47,6.2-.42,1.36-1.22,2.65-2.53,3.89-3.88a4.54,4.54,0,0,0,.48-6.23c-1.39-2.1-2.93-4.1-4.37-6.17-.51-.73-.92-1.54-1.23-2.06l4.52-10.83c1.39-.25,2.84-.53,4.3-.78,1.7-.28,3.4-.49,5.08-.83,2.71-.55,4-2,4.1-4.72C214,105.29,214,103.34,213.93,101.39Zm-51,22.27a19,19,0,0,1-19.13-19.28C143.66,93.5,153,85.18,163,85.19c8.6,0,19.13,6.76,19.16,19.31A19,19,0,0,1,162.91,123.66Z"/><path class="cls-3" d="M105.69,154.77c-.24-1.34-.47-2.68-.69-3.93l5.4-5.1c1.25.28,2.47.55,3.69.84.77.18,1.54.44,2.32.57a2.87,2.87,0,0,0,3.4-1.68c.43-.94.89-1.86,1.26-2.82.77-2.06.44-3.08-1.42-4.39-1.49-1-3-2-4.66-3.11.1-2,.19-3.88.29-5.77.85-.5,1.52-.93,2.21-1.31.91-.49,1.85-.91,2.75-1.41,2.24-1.26,2.59-2.07,1.91-4.44a26.55,26.55,0,0,0-.86-2.61c-.72-1.81-1.4-2.26-3.42-2.13-1.25.08-2.49.32-3.74.47-.78.09-1.57.13-2.31.19-.94-1.17-1.75-2.29-2.66-3.31s-2.07-2.11-3.23-3.29c.27-1.2.49-2.43.83-3.62,1.27-4.5,1.17-5.14-3.73-7.08-2.31-.92-3.17-1.27-4.65.82a46.72,46.72,0,0,0-2.91,3.67H87.72c-1-2.19-1.94-2.72-2.94-4.25-1.13-1.74-2-1.71-4.09-1a25.37,25.37,0,0,0-2.88,1.26c-1.67.78-2.14,1.79-1.89,3.68.12.79.37,1.59.51,2.38.22,1.22.4,2.45.57,3.48l-5.34,5c-1-.23-2.13-.45-3.23-.71-.89-.2-1.77-.48-2.66-.66a2.87,2.87,0,0,0-3.66,1.73,24.14,24.14,0,0,0-1.46,3.48A2.76,2.76,0,0,0,61.79,123c1.13.79,1.73,1.49,2.85,2.28a2.11,2.11,0,0,1,1,1.33v5.78c0,.43-.63.82-1.22,1.15-1,.55-1.75,1-2.75,1.59-2.44,1.34-2.61,2.09-1.87,4.69,0,.11.13.22.16.33,1.28,4.31,2,4.71,6.39,4.05,1.34-.19,2.67-.76,3.91-.35l5.72,6.3c-.12.71-.21,1.5-.39,2.27-.29,1.22-.68,2.42-.94,3.65a2.75,2.75,0,0,0,1.54,3.44c1.11.6,2.3,1,3.45,1.54a2.66,2.66,0,0,0,3.37-.84c.67-.78,1.16-2.42,1.76-3.26.73-1,1.17-3.47,2.08-3.47h7.2a65.47,65.47,0,0,0,3.24,6.05c1,1.58,2,2.28,3.8,1.74a25,25,0,0,0,3.2-1c1.58-.74,2-1.41,1.82-3.2A22.65,22.65,0,0,0,105.69,154.77ZM91.08,143a12.14,12.14,0,1,1,12.16-12.24A12.18,12.18,0,0,1,91.08,143Z"/><path class="cls-3" d="M155.46,163.72c-.3-1.76-.92-2.38-2.69-2.54-1.36-.13-2.72-.14-4-.2l-3.59-5.66c.53-1.28,1.09-2.52,1.58-3.79.61-1.59.43-2.24-.89-3.25a15.53,15.53,0,0,0-1.72-1.14c-1.31-.76-2-.72-3.07.3s-2.08,2.08-3.16,3.17l-5.41-1c-.48-1.17-.9-2.23-1.35-3.27-1-2.26-1.41-2.49-3.95-2-.34.06-.69.08-1,.16-1.56.41-2.13,1.05-2.18,2.63s0,2.94,0,4.29l-4.53,3c-.91-.37-1.76-.71-2.59-1.06-3.17-1.34-4.11-1-5.7,2.09a2.34,2.34,0,0,0,.41,3.12c1,1.06,2.09,2.06,3.19,3.12l-1,4.38-3.07,1.06c-2.66.92-2.88,1.26-2.6,3.95,0,.23,0,.46.07.69.3,1.94.92,2.55,2.88,2.71,1.35.11,2.71.13,3.94.18l3.51,5.46c-.35.83-.68,1.67-1,2.51-1.37,3.21-1.21,3.72,1.72,5.47l.29.19c1.43.8,2.1.74,3.35-.49,1-.95,1.85-2,2.76-3l5.55,1.1c.4,1,.75,1.8,1.09,2.64,1.31,3.25,1.74,3.47,5.12,2.62,1.8-.45,2.31-1,2.35-2.82,0-1.47,0-2.94,0-4.3l4.49-3c.8.32,1.55.58,2.26.93,3.74,1.82,4.11,1,6-2a2.14,2.14,0,0,0-.37-3.08c-1-1.07-2.1-2.07-3.19-3.14.39-1.53.75-2.93,1.09-4.24,1.44-.46,2.65-.81,3.83-1.24,1.6-.59,1.95-1.15,1.88-2.83A12.23,12.23,0,0,0,155.46,163.72Zm-23.75,13a9,9,0,1,1,.46-18,9,9,0,0,1-.46,18Z"/></g></g></svg>