<svg xmlns="http://www.w3.org/2000/svg" viewBox="0 0 273 319.14"><defs><style>.cls-1{fill:#020b1c;}.cls-2{font-size:30px;font-family:HiraMaruProN-W4-83pv-RKSJ-H, Hiragino Maru Gothic ProN;}.cls-3{fill:#fff;}</style></defs><g id="レイヤー_2" data-name="レイヤー 2"><g id="レイヤー_1-2" data-name="レイヤー 1"><g id="Photoshop"><rect id="_22" data-name=" 22" class="cls-1" x="10.69" width="251.18" height="245" rx="44.08"/></g><text class="cls-2" transform="translate(16.5 298.82)">自分の情報を登録</text><path class="cls-3" d="M136.17,63.42a14,14,0,0,0,10.17-4,13.71,13.71,0,0,0,4.21-10.28A13.73,13.73,0,0,0,146.34,39a13.69,13.69,0,0,0-10.17-4.28A13.18,13.18,0,0,0,126,39a13.61,13.61,0,0,0-4.08,10.1,13.87,13.87,0,0,0,14.24,14.31Z"/><path class="cls-3" d="M165.13,72.58a17.52,17.52,0,0,0-13-5.5h-32a18.11,18.11,0,0,0-13,5.43,18.51,18.51,0,0,0-5.48,13v44.93a5.7,5.7,0,0,0,1.87,4.41,5.94,5.94,0,0,0,4.42,1.74,6.06,6.06,0,0,0,4.61-1.74,6.52,6.52,0,0,0,1.61-4.41V90.29h3.27v111.2a7.51,7.51,0,0,0,2.68,5.68,8,8,0,0,0,5.88,2.41,7.64,7.64,0,0,0,6-2.41,7.31,7.31,0,0,0,2.48-5.68V137h3.61v64.46a7.8,7.8,0,0,0,2.47,5.68,7.89,7.89,0,0,0,6.15,2.41,7.65,7.65,0,0,0,5.68-2.41,7.92,7.92,0,0,0,2.35-5.68V90.29H158v40.19a6.24,6.24,0,0,0,1.67,4.41,6.61,6.61,0,0,0,4.61,1.74,5.84,5.84,0,0,0,4.55-1.74,7,7,0,0,0,1.67-4.41V85.56A17.92,17.92,0,0,0,165.13,72.58Z"/></g></g></svg>