<svg xmlns="http://www.w3.org/2000/svg" viewBox="0 0 273 319.14"><defs><style>.cls-1{fill:#020b1c;}.cls-2{font-size:30px;font-family:HiraMaruProN-W4-83pv-RKSJ-H, Hiragino Maru Gothic ProN;}.cls-3{fill:#fff;}</style></defs><g id="レイヤー_2" data-name="レイヤー 2"><g id="レイヤー_1-2" data-name="レイヤー 1"><g id="Photoshop"><rect id="_22" data-name=" 22" class="cls-1" x="10.69" width="251.18" height="245" rx="44.08"/></g><text class="cls-2" transform="translate(1.5 298.82)">自分の証明書を表示</text><path class="cls-3" d="M185.6,59.3H149.65V57s0,0,0-.06h1.45a1.27,1.27,0,0,0,1.26-1.27V50.3A1.27,1.27,0,0,0,151.09,49h-28.5a1.27,1.27,0,0,0-1.27,1.27v5.41A1.27,1.27,0,0,0,122.59,57H124s0,0,0,.06V59.3H88.07a5.42,5.42,0,0,0-5.4,5.4V191.64a5.41,5.41,0,0,0,5.4,5.4H185.6a5.4,5.4,0,0,0,5.4-5.4V64.7A5.41,5.41,0,0,0,185.6,59.3Zm.93,132.34a.94.94,0,0,1-.93.93H88.07a1,1,0,0,1-.93-.93V64.7a1,1,0,0,1,.93-.93h27.14a1.32,1.32,0,0,0-.18.62v4.37h-1.42A1.27,1.27,0,0,0,112.35,70v2.09a1.27,1.27,0,0,0,1.26,1.27h46.45a1.27,1.27,0,0,0,1.27-1.27V70a1.27,1.27,0,0,0-1.27-1.27h-1.41V64.39a1.22,1.22,0,0,0-.19-.62H185.6a.94.94,0,0,1,.93.93Z"/><rect class="cls-3" x="117.91" y="105.43" width="59.08" height="3.72" rx="1.49"/><path class="cls-3" d="M111.5,95.68a2.24,2.24,0,0,0-3,.82l-6,10.37L100.87,104a2.23,2.23,0,1,0-3.89,2.2l3.56,6.32a2.22,2.22,0,0,0,1.94,1.14h0a2.23,2.23,0,0,0,1.94-1.12l7.9-13.77A2.23,2.23,0,0,0,111.5,95.68Z"/><rect class="cls-3" x="117.91" y="124.57" width="59.08" height="3.72" rx="1.49"/><path class="cls-3" d="M111.5,114.82a2.24,2.24,0,0,0-3,.82l-6,10.37-1.63-2.91A2.23,2.23,0,1,0,97,125.3l3.56,6.32a2.22,2.22,0,0,0,1.94,1.14h0a2.23,2.23,0,0,0,1.94-1.12l7.9-13.77A2.23,2.23,0,0,0,111.5,114.82Z"/><rect class="cls-3" x="117.91" y="143.71" width="59.08" height="3.72" rx="1.49"/><path class="cls-3" d="M111.5,134a2.23,2.23,0,0,0-3,.82l-6,10.37-1.63-2.91a2.23,2.23,0,1,0-3.89,2.2l3.56,6.32a2.22,2.22,0,0,0,1.94,1.14h0a2.23,2.23,0,0,0,1.94-1.12l7.9-13.77A2.23,2.23,0,0,0,111.5,134Z"/><rect class="cls-3" x="117.91" y="162.85" width="59.08" height="3.72" rx="1.49"/><path class="cls-3" d="M111.5,153.1a2.23,2.23,0,0,0-3,.82l-6,10.37-1.63-2.91a2.23,2.23,0,1,0-3.89,2.2l3.56,6.32a2.22,2.22,0,0,0,1.94,1.14h0a2.23,2.23,0,0,0,1.94-1.12l7.9-13.77A2.23,2.23,0,0,0,111.5,153.1Z"/><path class="cls-3" d="M182.18,75.52h-4.46a.16.16,0,0,1-.16-.16V70.91a.16.16,0,0,0-.16-.16h-5.81a.16.16,0,0,0-.15.16v4.45a.16.16,0,0,1-.16.16h-4.46a.16.16,0,0,0-.16.16v5.81a.16.16,0,0,0,.16.16h4.46a.16.16,0,0,1,.16.16v4.45a.16.16,0,0,0,.15.16h5.81a.16.16,0,0,0,.16-.16V81.81a.16.16,0,0,1,.16-.16h4.46a.16.16,0,0,0,.15-.16V75.68A.16.16,0,0,0,182.18,75.52Z"/></g></g></svg>