<svg xmlns="http://www.w3.org/2000/svg" viewBox="0 0 273 319.14"><defs><style>.cls-1{fill:#020b1c;}.cls-2{font-size:30px;font-family:HiraMaruProN-W4-83pv-RKSJ-H, Hiragino Maru Gothic ProN;}.cls-3{fill:#fff;fill-rule:evenodd;}</style></defs><g id="レイヤー_2" data-name="レイヤー 2"><g id="レイヤー_1-2" data-name="レイヤー 1"><g id="Photoshop"><rect id="_22" data-name=" 22" class="cls-1" x="10.69" width="251.18" height="245" rx="44.08"/></g><text class="cls-2" transform="translate(1.5 298.82)">すべての情報を表示</text><path class="cls-3" d="M184.34,43.61h-71l-7.89,7.89L88.79,68.19l-7.88,7.88V193.18a7.68,7.68,0,0,0,7.67,7.67h95.76a7.68,7.68,0,0,0,7.67-7.67V51.28A7.68,7.68,0,0,0,184.34,43.61ZM184.12,193H88.79V76.82h22.27a3.73,3.73,0,0,0,3.72-3.73V51.5h69.34Z"/><path class="cls-3" d="M111.31,99.55c-1,.92-2,1.88-2.87,2.87-1.4,1.54-1.5,2.81-.34,4.58.89,1.34,1.88,2.61,2.78,3.94.46.68,1.16,1.25,1.2,1.9-1.17,2.79-2.23,5.35-3.32,8-.41.08-.82.17-1.23.24-2,.34-4,.64-6,1a3.19,3.19,0,0,0-2.83,3.11,43.06,43.06,0,0,0,0,4.82,3.1,3.1,0,0,0,2.4,2.93c.56.17,1.16.19,1.74.33,2,.48,4.18.46,6,1.22.85,2.26,1.65,4.38,2.48,6.56l-2.07,2.6c-.84,1-1.73,2.07-2.52,3.17a3.29,3.29,0,0,0,0,4.22,39.12,39.12,0,0,0,3,3.4A3.11,3.11,0,0,0,114,155c.67-.35,1.31-.78,2-1.18l4.46-2.77c1.62.84,3.08,1.68,4.62,2.36s3.13,1.2,4.68,1.78c.14.7.27,1.27.37,1.85.33,1.83.59,3.67,1,5.49a3,3,0,0,0,3.15,2.71c1.6.07,3.21.05,4.82,0a2.91,2.91,0,0,0,2.78-2.2c.23-.72.3-1.49.47-2.23.43-1.89.41-3.86,1-5.55l8-3.28c.71.48,1.48,1,2.24,1.53,1.25.87,2.46,1.8,3.73,2.63,1.79,1.17,3,1.09,4.58-.3,1-.91,2-1.87,2.87-2.87a3.35,3.35,0,0,0,.36-4.6c-1-1.55-2.17-3-3.23-4.56-.38-.54-.68-1.13-.91-1.52l3.34-8,3.18-.58c1.25-.21,2.51-.36,3.75-.61a3.32,3.32,0,0,0,3-3.48c.05-1.44.06-2.88,0-4.31a3.22,3.22,0,0,0-2.7-3.22c-.24-.06-.5-.07-.75-.12l-6.56-1.15-2.44-6.38c.36-.5.69-1,1-1.45,1-1.19,1.86-2.41,2.88-3.54,2-2.19,1.89-4.06-.07-6-.54-.53-1-1.14-1.52-1.7-2.15-2.37-3.2-2.53-5.91-.86-1.79,1.1-3.57,2.23-5.47,3.42A33.53,33.53,0,0,0,143.3,100c-.18-.91-.35-1.73-.49-2.55-.28-1.59-.53-3.17-.81-4.75a3.25,3.25,0,0,0-3.07-2.9,24.94,24.94,0,0,0-4.81,0A3.21,3.21,0,0,0,131,92.67c-.15.91-.25,1.85-.49,2.74-.41,1.53-.24,3.2-.9,4.45l-8,3.35c-.48-.33-1-.68-1.6-1.07-1.38-1-2.73-2-4.14-2.93A3.27,3.27,0,0,0,111.31,99.55Zm25.32,13.8a14.22,14.22,0,0,1,14.15,14.26,14.18,14.18,0,1,1-28.36-.09C122.33,119.49,129.26,113.35,136.63,113.35Z"/></g></g></svg>