<svg xmlns="http://www.w3.org/2000/svg" viewBox="0 0 98.12 98.12" width="32px" height="32px"><defs><style>.cls-1{fill:#92bf24;}</style></defs><g id="レイヤー_2" data-name="レイヤー 2"><g id="レイヤー_1-2" data-name="レイヤー 1"><path class="cls-1" d="M49.06,0A49.06,49.06,0,1,0,98.12,49.06,49.12,49.12,0,0,0,49.06,0ZM73.29,65.48A4.56,4.56,0,0,0,70,62.11,4.67,4.67,0,0,0,68.85,62a4.54,4.54,0,0,0-3.42,1.54,19.65,19.65,0,0,1-1.82,1.83,4.57,4.57,0,0,0,2,7.84A3.63,3.63,0,0,1,68,74.92a3.64,3.64,0,0,1-1.36,5,3.64,3.64,0,0,1-4.95-1.36,4.27,4.27,0,0,1-.24-.55,4.57,4.57,0,0,0-4.28-3,4.69,4.69,0,0,0-1.17.15,4.56,4.56,0,0,0-3.33,5.16,3.77,3.77,0,0,1,.06.6,3.63,3.63,0,0,1-7.26,0c0-.1,0-.19,0-.29a4.55,4.55,0,0,0-3.39-4.77,4.55,4.55,0,0,0-5.29,2.5,2.1,2.1,0,0,1-.13.26,3.63,3.63,0,0,1-3.17,1.86A3.58,3.58,0,0,1,31.7,80,3.63,3.63,0,0,1,30.32,75a3.58,3.58,0,0,1,2.32-1.74,4.56,4.56,0,0,0,2-7.86,21,21,0,0,1-1.83-1.82,4.57,4.57,0,0,0-3.4-1.52,4.33,4.33,0,0,0-1.13.15,4.54,4.54,0,0,0-3.31,3.38A3.6,3.6,0,0,1,23.2,68a3.64,3.64,0,0,1-4.95-1.36,3.65,3.65,0,0,1,1.36-4.95,4.27,4.27,0,0,1,.55-.24,4.56,4.56,0,0,0-1.57-8.84,4.74,4.74,0,0,0-.75.06,3.63,3.63,0,1,1-.6-7.2l.29,0,.36,0a4.56,4.56,0,0,0,1.91-8.7l-.26-.13a3.63,3.63,0,0,1,1.78-6.79,3.62,3.62,0,0,1,3.51,2.79A4.56,4.56,0,0,0,28.16,36a4.69,4.69,0,0,0,1.11.14,4.55,4.55,0,0,0,3.42-1.55,21,21,0,0,1,1.82-1.83,4.57,4.57,0,0,0-2-7.84,3.58,3.58,0,0,1-2.33-1.73,3.63,3.63,0,0,1,6.3-3.59,4.27,4.27,0,0,1,.24.55,4.57,4.57,0,0,0,4.28,3A4.69,4.69,0,0,0,42.16,23a4.56,4.56,0,0,0,3.33-5.16,3.77,3.77,0,0,1-.06-.6,3.63,3.63,0,1,1,7.26,0,2.83,2.83,0,0,1,0,.29,4.56,4.56,0,0,0,8.68,2.27,2.1,2.1,0,0,1,.13-.26,3.64,3.64,0,0,1,3.17-1.85,3.57,3.57,0,0,1,1.77.46,3.62,3.62,0,0,1,1.71,2.18,3.61,3.61,0,0,1-2.65,4.5,4.56,4.56,0,0,0-2,7.86,19.65,19.65,0,0,1,1.83,1.82A4.57,4.57,0,0,0,68.75,36a4.33,4.33,0,0,0,1.13-.15,4.54,4.54,0,0,0,3.31-3.38,3.62,3.62,0,0,1,6.68-1,3.64,3.64,0,0,1-1.36,4.95,4.27,4.27,0,0,1-.55.24,4.56,4.56,0,0,0,1.57,8.85,3.81,3.81,0,0,0,.75-.07,3.77,3.77,0,0,1,.6-.06,3.63,3.63,0,1,1,0,7.26l-.29,0-.36,0a4.57,4.57,0,0,0-1.91,8.71,2.06,2.06,0,0,1,.26.12,3.63,3.63,0,0,1-1.78,6.79,3.62,3.62,0,0,1-3.51-2.79Z"/></g></g></svg>